<svg width="300" height="300" viewBox="0 0 300 300" fill="none" xmlns="http://www.w3.org/2000/svg">
<path d="M222.137 66.1218C197.671 43.5373 175.227 20.9529 143.544 11.6875C111.79 2.34969 70.7972 6.4033 47.1978 28.9154C23.6705 51.4998 17.4639 92.6151 14.5771 136.626C11.6904 180.636 12.0512 227.543 35.6506 239.848C59.2501 252.154 106.016 229.859 145.781 222.91C185.619 215.888 218.456 224.213 242.849 211.907C267.243 199.602 283.264 166.666 278.068 138.942C272.872 111.218 246.53 88.7062 222.137 66.1218Z" fill="#E6F2FA"/>
<g filter="url(#filter0_d)">
<rect x="88.5714" y="25.3429" width="202.857" height="144.286" rx="4.7619" fill="white"/>
</g>
<mask id="mask0" mask-type="alpha" maskUnits="userSpaceOnUse" x="88" y="25" width="204" height="145">
<rect x="88.5714" y="25.3429" width="202.857" height="144.286" rx="4.7619" fill="white"/>
</mask>
<g mask="url(#mask0)">
<rect x="87.6191" y="25.3429" width="203.81" height="11.4286" fill="#007ACC"/>
</g>
<path fill-rule="evenodd" clip-rule="evenodd" d="M94.2857 32.9619C95.6007 32.9619 96.6667 31.8959 96.6667 30.581C96.6667 29.266 95.6007 28.2 94.2857 28.2C92.9708 28.2 91.9048 29.266 91.9048 30.581C91.9048 31.8959 92.9708 32.9619 94.2857 32.9619Z" fill="#DBDBDB"/>
<path fill-rule="evenodd" clip-rule="evenodd" d="M101.905 32.9619C103.22 32.9619 104.286 31.8959 104.286 30.581C104.286 29.266 103.22 28.2 101.905 28.2C100.59 28.2 99.5238 29.266 99.5238 30.581C99.5238 31.8959 100.59 32.9619 101.905 32.9619Z" fill="#EFEFEF"/>
<path fill-rule="evenodd" clip-rule="evenodd" d="M109.524 32.9619C110.839 32.9619 111.905 31.8959 111.905 30.581C111.905 29.266 110.839 28.2 109.524 28.2C108.209 28.2 107.143 29.266 107.143 30.581C107.143 31.8959 108.209 32.9619 109.524 32.9619Z" fill="#DBDBDB"/>
<g clip-path="url(#clip0)">
<path d="M96.4499 131.838L282.979 131.579" stroke="#007ACC" stroke-width="1.55657"/>
<rect x="164.68" y="61.5333" width="50.3291" height="70.0457" fill="#007ACC"/>
<rect x="217.084" y="87.9951" width="51.3669" height="43.584" fill="#007ACC"/>
<rect x="111.237" y="106.674" width="51.3669" height="24.9051" fill="#007ACC"/>
</g>
<path fill-rule="evenodd" clip-rule="evenodd" d="M135.146 145.538L134.482 148.112H131.992L135.379 137.286H138.318L141.705 148.112H139.114L138.45 145.538H135.146ZM135.644 143.629H137.952L137.703 142.633C137.548 142.09 137.399 141.515 137.255 140.906C137.111 140.297 136.967 139.711 136.823 139.146H136.757C136.624 139.722 136.488 140.311 136.35 140.914C136.212 141.518 136.065 142.09 135.91 142.633L135.644 143.629Z" fill="#C8C8C8"/>
<path fill-rule="evenodd" clip-rule="evenodd" d="M189.971 148.112C190.557 148.112 191.105 148.048 191.614 147.921C192.124 147.794 192.569 147.6 192.951 147.34C193.333 147.08 193.632 146.75 193.848 146.352C194.063 145.953 194.171 145.478 194.171 144.924C194.171 144.559 194.122 144.235 194.022 143.953C193.922 143.671 193.784 143.424 193.607 143.214C193.43 143.004 193.225 142.829 192.992 142.691C192.76 142.553 192.505 142.45 192.229 142.384V142.317C192.45 142.24 192.647 142.118 192.818 141.952C192.99 141.786 193.136 141.598 193.258 141.388C193.38 141.177 193.474 140.95 193.54 140.707C193.607 140.463 193.64 140.22 193.64 139.976C193.64 139.456 193.538 139.024 193.333 138.681C193.128 138.338 192.846 138.061 192.486 137.851C192.126 137.641 191.706 137.494 191.224 137.411C190.743 137.328 190.22 137.286 189.655 137.286H185.953V148.112H189.971ZM189.539 141.62H188.393V139.179H189.556C190.131 139.179 190.557 139.268 190.834 139.445C191.111 139.622 191.249 139.921 191.249 140.342C191.249 140.729 191.114 141.039 190.842 141.271C190.571 141.504 190.137 141.62 189.539 141.62ZM188.393 146.219H189.771C191.111 146.219 191.78 145.732 191.78 144.758C191.78 144.282 191.614 143.942 191.282 143.737C190.95 143.532 190.447 143.43 189.771 143.43H188.393V146.219Z" fill="#C8C8C8"/>
<path d="M243.388 148.51C244.816 148.51 245.984 147.979 246.891 146.916V146.916L245.596 145.389C245.331 145.677 245.024 145.917 244.675 146.111C244.326 146.305 243.931 146.402 243.488 146.402C242.691 146.402 242.054 146.095 241.578 145.48C241.102 144.866 240.864 144 240.864 142.882C240.864 142.339 240.934 141.852 241.072 141.421C241.21 140.989 241.398 140.624 241.636 140.325C241.874 140.026 242.157 139.796 242.483 139.636C242.81 139.475 243.156 139.395 243.521 139.395C243.908 139.395 244.254 139.475 244.559 139.636C244.863 139.796 245.154 140.004 245.43 140.258V140.258L246.725 138.698C246.36 138.321 245.901 137.992 245.347 137.71C244.794 137.428 244.169 137.286 243.471 137.286C242.785 137.286 242.132 137.414 241.512 137.668C240.892 137.923 240.35 138.294 239.885 138.781C239.42 139.268 239.049 139.863 238.772 140.566C238.496 141.269 238.357 142.068 238.357 142.965C238.357 143.873 238.49 144.672 238.756 145.364C239.021 146.056 239.384 146.634 239.843 147.099C240.303 147.564 240.837 147.915 241.446 148.153C242.054 148.391 242.702 148.51 243.388 148.51Z" fill="#C8C8C8"/>
<path fill-rule="evenodd" clip-rule="evenodd" d="M183.81 31.0572C183.81 28.9483 185.51 27.2476 187.619 27.2476C189.722 27.2476 191.429 28.954 191.429 31.0572C191.429 33.1603 189.722 34.8667 187.619 34.8667C185.516 34.8667 183.81 33.166 183.81 31.0572ZM185.227 33.0243H186.485V31.7431L185.227 32.0719V33.0243ZM188.248 33.0242H186.99V28.7612L188.248 28.3871V33.0242ZM188.747 33.0243H190.006V29.7987L188.747 30.1785V33.0243Z" fill="#FAFAF9"/>
<path d="M255.956 240.885C252.615 235.54 250.36 232.115 249.191 230.612C247.437 228.357 245.934 222.594 248.69 218.335C251.446 214.075 255.705 210.067 249.191 203.803C245.683 200.546 244.681 197.539 244.18 193.53C243.679 189.521 242.676 187.266 238.668 187.266C234.659 187.266 230.149 191.275 230.149 201.047C230.399 205.055 232.153 206.308 233.406 209.064C234.659 211.82 235.16 213.825 232.153 217.583C229.146 221.342 224.135 218.585 229.146 227.104C232.487 232.784 236.246 241.302 240.421 252.661L247.688 268.947C254.202 267.277 257.459 265.94 257.459 264.938C257.459 263.936 256.958 255.918 255.956 240.885Z" fill="#66B867"/>
<path d="M218.373 236.876C205.01 235.874 198.579 239.214 199.08 246.898C199.331 250.656 204.843 255.417 207.849 251.408C210.856 247.399 214.364 249.153 216.368 251.408C218.373 253.663 223.634 254.916 227.142 253.413C228.645 252.661 230.65 254.164 231.151 255.918C231.652 257.672 233.406 259.676 236.162 259.676C238.918 259.676 239.67 261.18 240.421 263.685C241.173 266.191 248.189 277.466 245.683 264.437C243.178 251.408 239.92 244.643 235.16 241.135C231.986 238.797 226.39 237.377 218.373 236.876Z" fill="#66B867"/>
<path d="M231.632 247.398C227.518 247.069 224.523 246.417 222.639 245.432L221.363 244.742L221 244.552C220.94 244.521 220.88 244.49 220.818 244.458L220.675 244.385C218.576 243.32 216.797 242.674 215.097 242.482C213.86 242.342 212.727 242.461 211.701 242.871L211.317 243.028L210.876 243.215C210.572 243.346 210.245 243.492 209.868 243.664L208.945 244.088C204.875 245.958 202.587 246.648 199.08 246.648V246.146C202.424 246.146 204.629 245.504 208.476 243.751L209.829 243.131L210.386 242.882C210.794 242.702 211.152 242.551 211.515 242.406C212.623 241.963 213.838 241.835 215.154 241.984C216.857 242.177 218.613 242.798 220.655 243.815L221.046 244.012L221.597 244.299C221.885 244.452 222.225 244.637 222.752 244.924C224.552 245.906 227.528 246.567 231.672 246.899L231.632 247.398Z" fill="white"/>
<path d="M249.441 260.679C249.775 256.503 249.107 253.58 247.437 251.909C244.931 249.404 245.683 245.144 244.681 241.386C243.679 237.628 241.674 235.122 237.916 232.867C234.157 230.612 232.654 229.109 232.654 225.35C232.654 221.592 227.392 218.836 225.137 216.832C222.883 214.827 215.616 203.302 209.854 207.06C204.091 210.818 207.849 220.339 209.854 223.847C211.858 227.355 213.863 230.362 214.614 233.619C215.366 236.876 215.616 240.384 224.135 242.388C227.392 243.39 227.894 245.395 228.645 247.399C229.397 249.404 231.401 255.668 235.661 256.67C239.92 257.672 241.424 259.175 240.672 264.437C240.171 267.945 241.507 268.279 244.681 265.439L249.441 260.679Z" fill="#CCE7CC"/>
<path d="M263.222 261.681C263.723 259.008 265.31 257.004 267.982 255.668C271.991 253.663 273.495 252.911 274.246 247.9C274.747 244.142 277.754 245.645 280.26 242.889C282.765 240.133 282.515 236.876 287.526 236.876C292.537 236.876 298.049 232.617 290.783 226.603C283.517 220.59 274.246 225.601 271.991 228.107C269.736 230.612 258.211 255.417 257.459 259.676C256.707 263.936 255.705 272.204 259.464 267.444C261.969 264.27 263.222 262.349 263.222 261.681Z" fill="#66B867"/>
<path d="M272.583 236.433C274.546 234.797 276.669 233.556 278.952 232.712L279.173 232.631C280.161 232.278 280.912 231.568 282.017 230.101L282.782 229.067L282.972 228.815C283.841 227.669 284.502 226.955 285.323 226.356C286.454 225.531 287.735 225.1 289.279 225.1V225.601C286.712 225.601 285.217 226.664 283.27 229.252L282.498 230.294L282.336 230.509L282.166 230.73C281.162 232.021 280.406 232.702 279.418 233.075L279.342 233.103C277.031 233.928 274.885 235.166 272.903 236.818L272.583 236.433Z" fill="white"/>
<path d="M254.954 260.679C254.286 250.656 254.286 243.724 254.954 239.883C255.956 234.12 252.198 226.854 257.209 222.845C262.22 218.836 265.477 215.328 268.484 208.313C271.49 201.297 279.007 199.293 283.267 200.796C287.526 202.299 289.28 204.554 284.77 210.067C282.765 213.073 285.02 221.843 280.761 225.851C276.502 229.86 273.745 231.113 273.745 237.377C273.745 243.641 273.996 246.146 268.484 250.155C266.98 251.659 262.22 256.67 261.719 260.679C261.385 263.351 259.13 263.351 254.954 260.679Z" fill="#CCE7CC"/>
<path d="M258.211 260.679H242.426C234.815 260.679 228.645 266.848 228.645 274.459V279.22C228.645 286.83 234.815 293 242.426 293H258.211C265.822 293 271.991 286.83 271.991 279.22V274.459C271.991 266.848 265.822 260.679 258.211 260.679Z" fill="#EFEFEF"/>
<path d="M255.957 260.651C256.287 257.686 256.859 255.36 257.679 253.668L257.736 253.551C258.175 252.673 258.199 251.946 257.967 250.093L257.903 249.583L257.871 249.305C257.636 247.215 257.744 246.018 258.488 244.531C258.946 243.615 259.487 242.815 260.417 241.61L261.25 240.542L261.476 240.249L261.638 240.035C261.69 239.966 261.74 239.899 261.789 239.833L261.861 239.735C263.163 237.949 263.685 236.627 263.475 235.157C263.136 232.784 263.095 231.108 263.478 229.277C263.962 226.959 265.131 224.751 267.171 222.559L267.521 222.19L268.304 221.378C269.199 220.453 270.262 219.364 270.408 219.212L270.709 218.895L270.904 218.686C271.598 217.937 272.074 217.361 272.458 216.797C273.341 215.503 273.725 214.245 273.744 212.463L273.745 212.322C273.745 209.377 276.873 205.489 283.112 200.599L283.421 200.993L283.057 201.28L282.712 201.556C277.122 206.042 274.305 209.619 274.247 212.239L274.246 212.322C274.246 214.278 273.836 215.666 272.873 217.079C272.401 217.771 271.806 218.469 270.875 219.448L268.172 222.235C267.972 222.443 267.796 222.626 267.663 222.767C265.607 224.937 264.443 227.106 263.968 229.379C263.6 231.142 263.639 232.766 263.971 235.087C264.204 236.715 263.637 238.149 262.266 240.03L262.079 240.283L261.875 240.553L260.816 241.914L260.545 242.268C259.795 243.258 259.331 243.966 258.936 244.755C258.216 246.196 258.136 247.35 258.401 249.524L258.48 250.151L258.508 250.389C258.699 252.051 258.653 252.809 258.214 253.716L258.184 253.775C257.364 255.415 256.786 257.727 256.455 260.706L255.957 260.651Z" fill="white"/>
<path d="M252.198 260.679C252.198 256.121 251.319 252.536 249.569 249.92L249.486 249.796C248.843 248.862 246.921 246.371 246.601 245.897C245.43 244.161 244.949 242.542 244.932 239.786L244.934 238.638L244.95 236.291L244.95 235.686C244.947 234.456 244.914 233.843 244.824 233.108L244.809 232.986C244.679 231.961 244.435 230.941 243.998 229.607L243.942 229.439C243.86 229.193 243.774 228.943 243.68 228.675L243.533 228.26L242.915 226.551L242.816 226.269L242.715 225.978C242.569 225.553 242.449 225.18 242.341 224.815C241.72 222.72 241.552 220.95 241.898 218.961L241.985 218.499L242.037 218.244C242.147 217.729 242.286 217.228 242.66 215.943L242.906 215.101C243.557 212.88 243.868 211.53 243.997 210.04C244.163 208.114 243.927 206.355 243.198 204.653L242.375 202.741L242.156 202.229C240.978 199.455 240.376 197.84 239.835 195.887C239.025 192.97 238.702 190.178 238.919 187.248L239.419 187.285C239.206 190.155 239.523 192.889 240.317 195.753L240.411 196.084L240.508 196.417C241.043 198.218 241.691 199.877 242.909 202.716L243.658 204.456C244.422 206.238 244.669 208.079 244.496 210.083C244.371 211.534 244.08 212.845 243.489 214.893L242.996 216.584C242.631 217.847 242.554 218.175 242.422 218.882C242.051 220.857 242.204 222.589 242.821 224.673L242.888 224.893L242.966 225.143C243.06 225.439 243.166 225.753 243.289 226.104L243.48 226.642C243.648 227.107 243.948 227.933 244.035 228.175L244.153 228.509C244.248 228.779 244.335 229.032 244.417 229.28C244.88 230.669 245.144 231.732 245.289 232.791L245.327 233.088L245.352 233.311C245.439 234.122 245.459 234.88 245.45 236.592L245.434 238.975L245.433 239.632C245.433 242.334 245.865 243.876 246.954 245.523L247.016 245.616C247.325 246.074 249.246 248.563 249.898 249.512C251.768 252.231 252.699 255.955 252.699 260.679H252.198Z" fill="white"/>
<path d="M244.681 260.679C244.681 255.392 243.447 251.444 240.99 248.823C237.566 245.17 236.296 242.582 235.415 238.178C235.004 236.122 233.602 234.407 231.294 232.7C230.889 232.401 230.468 232.11 229.965 231.776L228.507 230.821L228.144 230.577L227.898 230.409C226.745 229.617 226.109 229.086 225.45 228.334C224.514 227.264 223.791 225.928 223.2 224.095L223.034 223.572L222.96 223.344C221.975 220.351 221.2 219.457 218.42 217.799L217.996 217.549C214.713 215.634 211.054 211.213 209.618 207.143L210.09 206.977C211.487 210.934 215.068 215.261 218.248 217.116L218.467 217.245L218.682 217.372C221.698 219.173 222.485 220.164 223.585 223.651L223.623 223.772C224.204 225.632 224.911 226.956 225.827 228.004L225.946 228.137L226.072 228.273C226.663 228.901 227.302 229.402 228.423 230.161L228.849 230.446L230.102 231.265L230.38 231.45L230.671 231.646C231.001 231.87 231.3 232.082 231.592 232.298C233.991 234.071 235.466 235.875 235.907 238.08C236.748 242.284 237.935 244.768 241.1 248.205L241.356 248.481C243.91 251.205 245.182 255.275 245.182 260.679H244.681Z" fill="white"/>
<g filter="url(#filter1_d)">
<rect x="88.5714" y="25.3429" width="202.857" height="144.286" rx="4.7619" fill="white"/>
</g>
<mask id="mask1" mask-type="alpha" maskUnits="userSpaceOnUse" x="88" y="25" width="204" height="145">
<rect x="88.5714" y="25.3429" width="202.857" height="144.286" rx="4.7619" fill="white"/>
</mask>
<g mask="url(#mask1)">
<rect x="87.6191" y="25.3429" width="203.81" height="11.4286" fill="#DBDBDB"/>
</g>
<path fill-rule="evenodd" clip-rule="evenodd" d="M94.2857 32.9619C95.6007 32.9619 96.6667 31.8959 96.6667 30.581C96.6667 29.266 95.6007 28.2 94.2857 28.2C92.9708 28.2 91.9048 29.266 91.9048 30.581C91.9048 31.8959 92.9708 32.9619 94.2857 32.9619Z" fill="white"/>
<path fill-rule="evenodd" clip-rule="evenodd" d="M101.905 32.9619C103.22 32.9619 104.286 31.8959 104.286 30.581C104.286 29.266 103.22 28.2 101.905 28.2C100.59 28.2 99.5238 29.266 99.5238 30.581C99.5238 31.8959 100.59 32.9619 101.905 32.9619Z" fill="#EFEFEF"/>
<path fill-rule="evenodd" clip-rule="evenodd" d="M109.524 32.9619C110.839 32.9619 111.905 31.8959 111.905 30.581C111.905 29.266 110.839 28.2 109.524 28.2C108.209 28.2 107.143 29.266 107.143 30.581C107.143 31.8959 108.209 32.9619 109.524 32.9619Z" fill="#F9F9F9"/>
<g clip-path="url(#clip1)">
<path d="M96.4499 131.838L282.979 131.579" stroke="#007ACC" stroke-width="1.55657"/>
<rect x="164.68" y="61.5333" width="50.3291" height="70.0457" fill="#007ACC"/>
<rect x="217.084" y="87.9951" width="51.3669" height="43.584" fill="#007ACC"/>
<rect x="111.237" y="106.674" width="51.3669" height="24.9051" fill="#007ACC"/>
</g>
<path fill-rule="evenodd" clip-rule="evenodd" d="M135.146 145.538L134.482 148.112H131.992L135.379 137.286H138.318L141.705 148.112H139.114L138.45 145.538H135.146ZM135.644 143.629H137.952L137.703 142.633C137.548 142.09 137.399 141.515 137.255 140.906C137.111 140.297 136.967 139.711 136.823 139.146H136.757C136.624 139.722 136.488 140.311 136.35 140.914C136.212 141.518 136.065 142.09 135.91 142.633L135.644 143.629Z" fill="#C8C8C8"/>
<path fill-rule="evenodd" clip-rule="evenodd" d="M189.971 148.112C190.557 148.112 191.105 148.048 191.614 147.921C192.124 147.794 192.569 147.6 192.951 147.34C193.333 147.08 193.632 146.75 193.848 146.352C194.063 145.953 194.171 145.478 194.171 144.924C194.171 144.559 194.122 144.235 194.022 143.953C193.922 143.671 193.784 143.424 193.607 143.214C193.43 143.004 193.225 142.829 192.992 142.691C192.76 142.553 192.505 142.45 192.229 142.384V142.317C192.45 142.24 192.647 142.118 192.818 141.952C192.99 141.786 193.136 141.598 193.258 141.388C193.38 141.177 193.474 140.95 193.54 140.707C193.607 140.463 193.64 140.22 193.64 139.976C193.64 139.456 193.538 139.024 193.333 138.681C193.128 138.338 192.846 138.061 192.486 137.851C192.126 137.641 191.706 137.494 191.224 137.411C190.743 137.328 190.22 137.286 189.655 137.286H185.953V148.112H189.971ZM189.539 141.62H188.393V139.179H189.556C190.131 139.179 190.557 139.268 190.834 139.445C191.111 139.622 191.249 139.921 191.249 140.342C191.249 140.729 191.114 141.039 190.842 141.271C190.571 141.504 190.137 141.62 189.539 141.62ZM188.393 146.219H189.771C191.111 146.219 191.78 145.732 191.78 144.758C191.78 144.282 191.614 143.942 191.282 143.737C190.95 143.532 190.447 143.43 189.771 143.43H188.393V146.219Z" fill="#C8C8C8"/>
<path d="M243.388 148.51C244.816 148.51 245.984 147.979 246.891 146.916V146.916L245.596 145.389C245.331 145.677 245.024 145.917 244.675 146.111C244.326 146.305 243.931 146.402 243.488 146.402C242.691 146.402 242.054 146.095 241.578 145.48C241.102 144.866 240.864 144 240.864 142.882C240.864 142.339 240.934 141.852 241.072 141.421C241.21 140.989 241.398 140.624 241.636 140.325C241.874 140.026 242.157 139.796 242.483 139.636C242.81 139.475 243.156 139.395 243.521 139.395C243.908 139.395 244.254 139.475 244.559 139.636C244.863 139.796 245.154 140.004 245.43 140.258V140.258L246.725 138.698C246.36 138.321 245.901 137.992 245.347 137.71C244.794 137.428 244.169 137.286 243.471 137.286C242.785 137.286 242.132 137.414 241.512 137.668C240.892 137.923 240.35 138.294 239.885 138.781C239.42 139.268 239.049 139.863 238.772 140.566C238.496 141.269 238.357 142.068 238.357 142.965C238.357 143.873 238.49 144.672 238.756 145.364C239.021 146.056 239.384 146.634 239.843 147.099C240.303 147.564 240.837 147.915 241.446 148.153C242.054 148.391 242.702 148.51 243.388 148.51Z" fill="#C8C8C8"/>
<path d="M255.956 240.885C252.615 235.54 250.36 232.115 249.191 230.612C247.437 228.357 245.934 222.594 248.69 218.335C251.446 214.075 255.705 210.067 249.191 203.803C245.683 200.546 244.681 197.539 244.18 193.53C243.679 189.521 242.676 187.266 238.668 187.266C234.659 187.266 230.149 191.275 230.149 201.047C230.399 205.055 232.153 206.308 233.406 209.064C234.659 211.82 235.16 213.825 232.153 217.583C229.146 221.342 224.135 218.585 229.146 227.104C232.487 232.784 236.246 241.302 240.421 252.661L247.688 268.947C254.202 267.277 257.459 265.94 257.459 264.938C257.459 263.936 256.958 255.918 255.956 240.885Z" fill="#66B867"/>
<path d="M218.373 236.876C205.01 235.874 198.579 239.214 199.08 246.898C199.331 250.656 204.843 255.417 207.849 251.408C210.856 247.399 214.364 249.153 216.368 251.408C218.373 253.663 223.634 254.916 227.142 253.413C228.645 252.661 230.65 254.164 231.151 255.918C231.652 257.672 233.406 259.676 236.162 259.676C238.918 259.676 239.67 261.18 240.421 263.685C241.173 266.191 248.189 277.466 245.683 264.437C243.178 251.408 239.92 244.643 235.16 241.135C231.986 238.797 226.39 237.377 218.373 236.876Z" fill="#66B867"/>
<path d="M231.632 247.398C227.518 247.069 224.523 246.417 222.639 245.432L221.363 244.742L221 244.552C220.94 244.521 220.88 244.49 220.818 244.458L220.675 244.385C218.576 243.32 216.797 242.674 215.097 242.482C213.86 242.342 212.727 242.461 211.701 242.871L211.317 243.028L210.876 243.215C210.572 243.346 210.245 243.492 209.868 243.664L208.945 244.088C204.875 245.958 202.587 246.648 199.08 246.648V246.146C202.424 246.146 204.629 245.504 208.476 243.751L209.829 243.131L210.386 242.882C210.794 242.702 211.152 242.551 211.515 242.406C212.623 241.963 213.838 241.835 215.154 241.984C216.857 242.177 218.613 242.798 220.655 243.815L221.046 244.012L221.597 244.299C221.885 244.452 222.225 244.637 222.752 244.924C224.552 245.906 227.528 246.567 231.672 246.899L231.632 247.398Z" fill="white"/>
<path d="M249.441 260.679C249.775 256.503 249.107 253.58 247.437 251.909C244.931 249.404 245.683 245.144 244.681 241.386C243.679 237.628 241.674 235.122 237.916 232.867C234.157 230.612 232.654 229.109 232.654 225.35C232.654 221.592 227.392 218.836 225.137 216.832C222.883 214.827 215.616 203.302 209.854 207.06C204.091 210.818 207.849 220.339 209.854 223.847C211.858 227.355 213.863 230.362 214.614 233.619C215.366 236.876 215.616 240.384 224.135 242.388C227.392 243.39 227.894 245.395 228.645 247.399C229.397 249.404 231.401 255.668 235.661 256.67C239.92 257.672 241.424 259.175 240.672 264.437C240.171 267.945 241.507 268.279 244.681 265.439L249.441 260.679Z" fill="#CCE7CC"/>
<path d="M263.222 261.681C263.723 259.008 265.31 257.004 267.982 255.668C271.991 253.663 273.495 252.911 274.246 247.9C274.747 244.142 277.754 245.645 280.26 242.889C282.765 240.133 282.515 236.876 287.526 236.876C292.537 236.876 298.049 232.617 290.783 226.603C283.517 220.59 274.246 225.601 271.991 228.107C269.736 230.612 258.211 255.417 257.459 259.676C256.707 263.936 255.705 272.204 259.464 267.444C261.969 264.27 263.222 262.349 263.222 261.681Z" fill="#66B867"/>
<path d="M272.583 236.433C274.546 234.797 276.669 233.556 278.952 232.712L279.173 232.631C280.161 232.278 280.912 231.568 282.017 230.101L282.782 229.067L282.972 228.815C283.841 227.669 284.502 226.955 285.323 226.356C286.454 225.531 287.735 225.1 289.279 225.1V225.601C286.712 225.601 285.217 226.664 283.27 229.252L282.498 230.294L282.336 230.509L282.166 230.73C281.162 232.021 280.406 232.702 279.418 233.075L279.342 233.103C277.031 233.928 274.885 235.166 272.903 236.818L272.583 236.433Z" fill="white"/>
<path d="M254.954 260.679C254.286 250.656 254.286 243.724 254.954 239.883C255.956 234.12 252.198 226.854 257.209 222.845C262.22 218.836 265.477 215.328 268.484 208.313C271.49 201.297 279.007 199.293 283.267 200.796C287.526 202.299 289.28 204.554 284.77 210.067C282.765 213.073 285.02 221.843 280.761 225.851C276.502 229.86 273.745 231.113 273.745 237.377C273.745 243.641 273.996 246.146 268.484 250.155C266.98 251.659 262.22 256.67 261.719 260.679C261.385 263.351 259.13 263.351 254.954 260.679Z" fill="#CCE7CC"/>
<path d="M258.211 260.679H242.426C234.815 260.679 228.645 266.848 228.645 274.459V279.22C228.645 286.83 234.815 293 242.426 293H258.211C265.822 293 271.991 286.83 271.991 279.22V274.459C271.991 266.848 265.822 260.679 258.211 260.679Z" fill="#EFEFEF"/>
<path d="M255.957 260.651C256.287 257.686 256.859 255.36 257.679 253.668L257.736 253.551C258.175 252.673 258.199 251.946 257.967 250.093L257.903 249.583L257.871 249.305C257.636 247.215 257.744 246.018 258.488 244.531C258.946 243.615 259.487 242.815 260.417 241.61L261.25 240.542L261.476 240.249L261.638 240.035C261.69 239.966 261.74 239.899 261.789 239.833L261.861 239.735C263.163 237.949 263.685 236.627 263.475 235.157C263.136 232.784 263.095 231.108 263.478 229.277C263.962 226.959 265.131 224.751 267.171 222.559L267.521 222.19L268.304 221.378C269.199 220.453 270.262 219.364 270.408 219.212L270.709 218.895L270.904 218.686C271.598 217.937 272.074 217.361 272.458 216.797C273.341 215.503 273.725 214.245 273.744 212.463L273.745 212.322C273.745 209.377 276.873 205.489 283.112 200.599L283.421 200.993L283.057 201.28L282.712 201.556C277.122 206.042 274.305 209.619 274.247 212.239L274.246 212.322C274.246 214.278 273.836 215.666 272.873 217.079C272.401 217.771 271.806 218.469 270.875 219.448L268.172 222.235C267.972 222.443 267.796 222.626 267.663 222.767C265.607 224.937 264.443 227.106 263.968 229.379C263.6 231.142 263.639 232.766 263.971 235.087C264.204 236.715 263.637 238.149 262.266 240.03L262.079 240.283L261.875 240.553L260.816 241.914L260.545 242.268C259.795 243.258 259.331 243.966 258.936 244.755C258.216 246.196 258.136 247.35 258.401 249.524L258.48 250.151L258.508 250.389C258.699 252.051 258.653 252.809 258.214 253.716L258.184 253.775C257.364 255.415 256.786 257.727 256.455 260.706L255.957 260.651Z" fill="white"/>
<path d="M252.198 260.679C252.198 256.121 251.319 252.536 249.569 249.92L249.486 249.796C248.843 248.862 246.921 246.371 246.601 245.897C245.43 244.161 244.949 242.542 244.932 239.786L244.934 238.638L244.95 236.291L244.95 235.686C244.947 234.456 244.914 233.843 244.824 233.108L244.809 232.986C244.679 231.961 244.435 230.941 243.998 229.607L243.942 229.439C243.86 229.193 243.774 228.943 243.68 228.675L243.533 228.26L242.915 226.551L242.816 226.269L242.715 225.978C242.569 225.553 242.449 225.18 242.341 224.815C241.72 222.72 241.552 220.95 241.898 218.961L241.985 218.499L242.037 218.244C242.147 217.729 242.286 217.228 242.66 215.943L242.906 215.101C243.557 212.88 243.868 211.53 243.997 210.04C244.163 208.114 243.927 206.355 243.198 204.653L242.375 202.741L242.156 202.229C240.978 199.455 240.376 197.84 239.835 195.887C239.025 192.97 238.702 190.178 238.919 187.248L239.419 187.285C239.206 190.155 239.523 192.889 240.317 195.753L240.411 196.084L240.508 196.417C241.043 198.218 241.691 199.877 242.909 202.716L243.658 204.456C244.422 206.238 244.669 208.079 244.496 210.083C244.371 211.534 244.08 212.845 243.489 214.893L242.996 216.584C242.631 217.847 242.554 218.175 242.422 218.882C242.051 220.857 242.204 222.589 242.821 224.673L242.888 224.893L242.966 225.143C243.06 225.439 243.166 225.753 243.289 226.104L243.48 226.642C243.648 227.107 243.948 227.933 244.035 228.175L244.153 228.509C244.248 228.779 244.335 229.032 244.417 229.28C244.88 230.669 245.144 231.732 245.289 232.791L245.327 233.088L245.352 233.311C245.439 234.122 245.459 234.88 245.45 236.592L245.434 238.975L245.433 239.632C245.433 242.334 245.865 243.876 246.954 245.523L247.016 245.616C247.325 246.074 249.246 248.563 249.898 249.512C251.768 252.231 252.699 255.955 252.699 260.679H252.198Z" fill="white"/>
<path d="M244.681 260.679C244.681 255.392 243.447 251.444 240.99 248.823C237.566 245.17 236.296 242.582 235.415 238.178C235.004 236.122 233.602 234.407 231.294 232.7C230.889 232.401 230.468 232.11 229.965 231.776L228.507 230.821L228.144 230.577L227.898 230.409C226.745 229.617 226.109 229.086 225.45 228.334C224.514 227.264 223.791 225.928 223.2 224.095L223.034 223.572L222.96 223.344C221.975 220.351 221.2 219.457 218.42 217.799L217.996 217.549C214.713 215.634 211.054 211.213 209.618 207.143L210.09 206.977C211.487 210.934 215.068 215.261 218.248 217.116L218.467 217.245L218.682 217.372C221.698 219.173 222.485 220.164 223.585 223.651L223.623 223.772C224.204 225.632 224.911 226.956 225.827 228.004L225.946 228.137L226.072 228.273C226.663 228.901 227.302 229.402 228.423 230.161L228.849 230.446L230.102 231.265L230.38 231.45L230.671 231.646C231.001 231.87 231.3 232.082 231.592 232.298C233.991 234.071 235.466 235.875 235.907 238.08C236.748 242.284 237.935 244.768 241.1 248.205L241.356 248.481C243.91 251.205 245.182 255.275 245.182 260.679H244.681Z" fill="white"/>
<path fill-rule="evenodd" clip-rule="evenodd" d="M107.645 265.245C106.955 269.584 105.776 276.693 104.109 286.572L98.5444 286.243C98.1006 279.125 97.3212 272.455 96.531 266.314C94.4635 250.245 112.866 232.416 107.645 265.245ZM80.2642 264.355C79.726 268.716 78.7963 275.861 77.4754 285.793L71.9023 285.658C71.2104 278.561 70.1987 271.922 69.1946 265.812C66.5676 249.824 84.3368 231.364 80.2642 264.355Z" fill="#FFD8C2"/>
<path fill-rule="evenodd" clip-rule="evenodd" d="M82.6256 233.495C82.7358 243.68 81.376 259.114 78.5461 279.798C77.299 280.485 76.084 280.828 74.9011 280.828C73.7182 280.828 72.1452 280.485 70.1819 279.798C67.7813 256.289 64.6701 248.464 65.1022 239.147C60.2919 239.954 54.7986 240.357 48.0434 240.357C25.7812 240.357 26.1439 216.777 25.7126 211.537C25.2902 206.405 34.9541 205.56 54.7044 209.001C85.5282 206.716 103.201 207.108 107.721 210.178C112.242 213.248 112.041 236.108 107.12 278.757C105.744 279.85 104.196 280.451 102.475 280.559C100.754 280.667 98.9877 280.274 97.1756 279.381C94.9684 241.517 90.8238 242.035 94.4362 227.173C90.1051 229.623 86.3168 231.73 82.6256 233.495Z" fill="#99CAEB"/>
<path d="M82.5415 231.31C75.7804 235.119 71.8474 236.874 66.6713 238.115C66.4671 238.164 66.3413 238.37 66.3903 238.574C66.4392 238.778 66.6445 238.904 66.8486 238.855C72.1074 237.593 76.0974 235.813 82.9147 231.973C83.0976 231.87 83.1624 231.638 83.0593 231.455C82.9563 231.272 82.7244 231.207 82.5415 231.31Z" fill="#0E143F"/>
<path fill-rule="evenodd" clip-rule="evenodd" d="M70.5319 283.494C71.2323 282.793 74.5123 284.838 75.8784 284.842C76.7892 284.844 77.3824 284.402 77.6581 283.515C83.3269 285.87 86.678 287.362 87.7114 287.991C88.7448 288.62 89.0499 289.353 88.6267 290.191H70.5319C70.0649 286.194 70.0649 283.961 70.5319 283.494ZM97.5256 283.494C98.226 282.793 101.506 284.838 102.872 284.842C103.783 284.844 104.376 284.402 104.652 283.515C110.321 285.87 113.672 287.362 114.705 287.991C115.738 288.62 116.044 289.353 115.62 290.191H97.5256C97.0586 286.194 97.0586 283.961 97.5256 283.494Z" fill="black"/>
<path fill-rule="evenodd" clip-rule="evenodd" d="M92.6809 148.104C94.1548 144.731 95.1812 142.875 95.7599 142.535C96.3387 142.195 96.3573 143.435 95.8159 146.256C100.229 144.422 102.599 143.69 102.925 144.06C103.576 144.797 100.105 146.385 99.7333 146.93C100.265 146.974 104.594 145.581 104.934 146.275C105.161 146.739 103.573 147.625 100.169 148.935C103.328 148.361 104.929 148.31 104.972 148.783C105.036 149.492 101.943 150.277 100.64 150.767C100.163 150.946 103.858 150.62 103.862 151.147C103.867 151.673 102.628 151.887 100.215 152.521C98.6063 152.943 96.8368 152.947 94.9065 152.531L92.5862 158.318L89.5324 155.332L92.6809 148.104Z" fill="#FFD8C2"/>
<path fill-rule="evenodd" clip-rule="evenodd" d="M56.106 153.78C60.8735 157.55 69.4779 166.964 75.0825 174.156C76.2356 168.661 82.4111 166.367 89.1091 153.318C89.9765 151.628 91.8139 152.122 94.6212 154.798C88.4796 174.088 82.3027 196.577 77.8602 195.518C75.0492 194.848 67.4583 188.636 60.3444 181.703C60.4567 187.668 60.4194 193.088 61.0006 197.149C61.8243 202.904 64.8387 203.873 65.789 206.447C66.5039 208.383 56.3494 219.081 46.2232 221.927C36.0971 224.773 29.6669 222.582 24.0829 217.395C22.2036 215.649 24.0649 210.699 25.9938 205.553C22.7055 205.179 20.21 204.53 19.3595 203.462C16.421 199.772 15.3383 171.497 17.989 161.435C17.883 158.934 18.5406 156.959 21.32 155.173C22.5401 154.389 25.4967 152.966 30.1897 150.905C33.3529 153.853 44.3247 153.215 44.1245 150.544C50.914 150.945 54.9079 152.024 56.106 153.78Z" fill="#A568DA"/>
<path d="M60.3757 181.008L57.0642 177.573C56.9159 177.419 56.6752 177.419 56.5265 177.572C56.3779 177.726 56.3776 177.975 56.5258 178.129L59.8374 181.563C59.9856 181.717 60.2264 181.717 60.375 181.564C60.5237 181.41 60.524 181.161 60.3757 181.008Z" fill="#0E143F"/>
<path d="M27.5318 188.72C26.4971 186.816 25.3155 184.848 23.9871 182.817C23.1714 181.571 22.3275 179.433 21.4666 176.416C21.4072 176.207 21.1958 176.088 20.9944 176.15C20.793 176.211 20.6779 176.43 20.7374 176.638C21.6185 179.727 22.4882 181.93 23.3573 183.258C24.6743 185.271 25.8448 187.221 26.8689 189.105C29.3347 193.644 28.3997 200.251 24.0041 208.934L23.9815 208.989C22.6448 212.995 22.6448 216.012 24.0312 218.025C25.4156 220.036 30.4273 221.796 39.1671 223.415C39.3737 223.453 39.5713 223.311 39.6083 223.097C39.6453 222.883 39.5078 222.679 39.3011 222.641C30.7845 221.063 25.8674 219.336 24.6505 217.569C23.4386 215.809 23.4357 213.049 24.691 209.273C29.1823 200.391 30.149 193.537 27.5318 188.72Z" fill="#0E143F"/>
<path fill-rule="evenodd" clip-rule="evenodd" d="M38.2433 119.572C43.9126 119.572 48.5085 124.066 48.5085 129.608V136.026C48.5085 141.569 45.7536 146.256 45.0799 146.216C44.9847 146.21 44.6255 146.105 44.0769 145.916C43.8231 148.693 43.8056 150.303 44.0244 150.749C44.4803 151.677 46.4351 151.29 43.9484 154.17C41.4617 157.049 31.9991 158.706 29.1195 154.069C30.1681 150.784 31.7294 146.477 33.8034 141.149C31.6935 139.823 30.0771 138.393 29.8742 137.068C29.4596 134.36 28.8275 131.873 27.9781 129.608C27.9781 124.066 32.5739 119.572 38.2433 119.572Z" fill="#FFD8C2"/>
<path d="M44.2018 148.227C44.2172 145.797 44.1872 144.38 44.1062 143.915C44.0989 143.873 44.0917 143.84 44.082 143.809C44.0712 143.773 44.0712 143.773 44.0321 143.7C43.9283 143.545 43.9283 143.545 43.5095 143.581C43.3504 143.745 43.3504 143.745 43.3391 143.807C43.328 143.852 43.328 143.852 43.3238 143.881C43.3197 143.91 43.3171 143.944 43.3152 143.985C43.309 144.119 43.3099 144.364 43.3176 144.726C43.3327 145.436 43.3741 146.607 43.4417 148.24C43.4622 148.735 44.1987 148.722 44.2018 148.227Z" fill="#EF6949"/>
<path fill-rule="evenodd" clip-rule="evenodd" d="M3.97613 169.743C17.2689 186.053 44.0797 170.643 47.4238 160.855C50.7679 151.068 46.2226 148.514 43.52 146.845C40.8173 145.175 39.6502 133.906 42.6082 132.629C45.5663 131.352 45.5605 135.22 46.4621 135.036C47.3636 134.852 45.2415 127.232 47.9893 126.8C48.7607 126.678 52.8445 121.783 50.2291 118.352C47.6136 114.921 39.9744 114.945 32.6536 118.61C31.7385 119.068 30.9353 120.014 30.2438 121.447C28.8769 121.332 27.652 122.104 26.569 123.763C24.9446 126.252 25.565 133.208 18.6899 140.862C14.6436 145.367 -9.31662 153.434 3.97613 169.743Z" fill="black"/>
<path d="M45.2709 134.909C44.0198 133.701 42.9052 133.854 42.2834 135.363C42.2033 135.557 42.2959 135.779 42.49 135.859C42.6841 135.939 42.9064 135.846 42.9864 135.652C43.3925 134.667 43.8592 134.603 44.7428 135.456C44.8938 135.602 45.1345 135.598 45.2803 135.447C45.4262 135.296 45.4219 135.055 45.2709 134.909Z" fill="#EF6949"/>
<path fill-rule="evenodd" clip-rule="evenodd" d="M22.2691 248.935C22.1306 249.41 21.5939 249.693 21.0702 249.567C20.5466 249.442 20.2343 248.955 20.3728 248.48L22.4124 241.488C22.5509 241.013 23.0877 240.73 23.6113 240.855C24.135 240.981 24.4472 241.468 24.3088 241.942L22.2691 248.935ZM43.095 248.83L42.3424 243.929C42.2678 243.443 42.6421 242.993 43.1786 242.926C43.7151 242.858 44.2105 243.197 44.2852 243.684L45.0378 248.585C45.1124 249.072 44.7381 249.521 44.2016 249.588C43.6651 249.656 43.1697 249.317 43.095 248.83Z" fill="#919191"/>
<path fill-rule="evenodd" clip-rule="evenodd" d="M8.80937 197.165C8.07397 195.176 9.09268 193.002 11.1827 192.1C14.3729 190.724 19.2763 190.71 25.893 192.057C40.4695 195.025 42.1794 205.183 43.4134 211.715C44.6473 218.247 47.8588 229.335 56.2475 232.672C64.6362 236.009 79.0476 232.963 79.0476 239.362C79.0476 242.808 66.9332 244.879 35.9081 245.575C35.7087 245.579 35.5093 245.581 35.3098 245.581C21.949 245.581 11.1179 235.762 11.1179 223.65C11.1179 220.542 11.1179 217.568 11.1179 214.73C11.1179 207.184 10.3484 201.329 8.80937 197.165Z" fill="#EFEFEF"/>
<path fill-rule="evenodd" clip-rule="evenodd" d="M20.9578 247.661H21.6215C22.3437 247.661 22.9292 248.191 22.9292 248.846C22.9292 248.956 22.9123 249.066 22.8789 249.172L11.7216 290.735C11.6414 290.989 11.3849 291.165 11.0929 291.165H9.81144C9.45034 291.165 9.15761 290.899 9.15761 290.572C9.15761 290.523 9.16437 290.474 9.17773 290.426L19.0566 249.001C19.2775 248.213 20.0604 247.661 20.9578 247.661ZM44.1661 247.661C45.1893 247.661 46.0405 248.374 46.1215 249.298L49.1913 290.525C49.1927 290.541 49.1934 290.556 49.1934 290.572C49.1934 290.899 48.9006 291.165 48.5395 291.165H47.2172C46.884 291.165 46.6041 290.938 46.5673 290.637L42.2165 248.977C42.2111 248.934 42.2085 248.89 42.2085 248.846C42.2085 248.191 42.7939 247.661 43.5161 247.661H44.1661Z" fill="#DBDBDB"/>
<path d="M36.4214 248.83C36.3468 249.317 35.8513 249.656 35.3148 249.588C34.7784 249.521 34.404 249.072 34.4787 248.585L35.2312 243.684C35.3059 243.198 35.8013 242.858 36.3378 242.926C36.8743 242.994 37.2487 243.443 37.174 243.929L36.4214 248.83Z" fill="#919191"/>
<path fill-rule="evenodd" clip-rule="evenodd" d="M35.2837 247.661H35.9469C36.6691 247.661 37.2546 248.191 37.2546 248.846C37.2546 248.908 37.2492 248.971 37.2384 249.032L31.0277 290.665C30.9773 290.953 30.7035 291.165 30.3819 291.165H29.0669C28.7058 291.165 28.4131 290.899 28.4131 290.572C28.4131 290.547 28.4148 290.522 28.4183 290.497L33.3378 249.215C33.4622 248.327 34.2959 247.661 35.2837 247.661Z" fill="#DBDBDB"/>
<path d="M57.8433 248.83L56.4111 243.929C56.3364 243.443 56.7108 242.994 57.2473 242.926C57.7838 242.858 58.2792 243.198 58.3539 243.684L59.7861 248.585C59.8607 249.072 59.4864 249.521 58.9499 249.588C58.4134 249.656 57.918 249.317 57.8433 248.83Z" fill="#919191"/>
<path fill-rule="evenodd" clip-rule="evenodd" d="M59.1194 247.661C60.0168 247.661 60.7997 248.213 61.0206 249.001L70.8995 290.426C70.9128 290.474 70.9196 290.523 70.9196 290.572C70.9196 290.899 70.6268 291.165 70.2657 291.165H68.9842C68.6923 291.165 68.4358 290.989 68.3556 290.735L57.1983 249.172C57.1649 249.066 57.148 248.956 57.148 248.846C57.148 248.191 57.7334 247.661 58.4557 247.661H59.1194Z" fill="#DBDBDB"/>
<defs>
<filter id="filter0_d" x="86.6667" y="24.3905" width="206.667" height="148.095" filterUnits="userSpaceOnUse" color-interpolation-filters="sRGB">
<feFlood flood-opacity="0" result="BackgroundImageFix"/>
<feColorMatrix in="SourceAlpha" type="matrix" values="0 0 0 0 0 0 0 0 0 0 0 0 0 0 0 0 0 0 127 0"/>
<feOffset dy="0.952381"/>
<feGaussianBlur stdDeviation="0.952381"/>
<feColorMatrix type="matrix" values="0 0 0 0 0 0 0 0 0 0 0 0 0 0 0 0 0 0 0.2 0"/>
<feBlend mode="normal" in2="BackgroundImageFix" result="effect1_dropShadow"/>
<feBlend mode="normal" in="SourceGraphic" in2="effect1_dropShadow" result="shape"/>
</filter>
<filter id="filter1_d" x="86.6667" y="24.3905" width="206.667" height="148.095" filterUnits="userSpaceOnUse" color-interpolation-filters="sRGB">
<feFlood flood-opacity="0" result="BackgroundImageFix"/>
<feColorMatrix in="SourceAlpha" type="matrix" values="0 0 0 0 0 0 0 0 0 0 0 0 0 0 0 0 0 0 127 0"/>
<feOffset dy="0.952381"/>
<feGaussianBlur stdDeviation="0.952381"/>
<feColorMatrix type="matrix" values="0 0 0 0 0 0 0 0 0 0 0 0 0 0 0 0 0 0 0.2 0"/>
<feBlend mode="normal" in2="BackgroundImageFix" result="effect1_dropShadow"/>
<feBlend mode="normal" in="SourceGraphic" in2="effect1_dropShadow" result="shape"/>
</filter>
<clipPath id="clip0">
<rect x="96.1905" y="61.5333" width="186.965" height="70.8624" fill="white"/>
</clipPath>
<clipPath id="clip1">
<rect x="96.1905" y="61.5333" width="186.965" height="70.8624" fill="white"/>
</clipPath>
</defs>
</svg>
